<svg xmlns="http://www.w3.org/2000/svg" xmlns:xlink="http://www.w3.org/1999/xlink" width="512" height="512" x="0" y="0" viewBox="0 0 511.736 516.902" style="enable-background:new 0 0 512 512" xml:space="preserve" class=""><g><g data-name="Layer 72"><path fill="#939598" d="M354.847 456.936c0 22.8-20.61 41.281-46.033 41.281s-46.032-18.482-46.032-41.281z" opacity="1" data-original="#939598"></path><path d="M308.814 504.217c-28.69 0-52.032-21.21-52.032-47.28v-6h104.065v6c0 26.07-23.342 47.28-52.033 47.28zm-39.453-41.28c3.241 16.606 19.7 29.28 39.453 29.28s36.212-12.674 39.454-29.28z" fill="#000000" opacity="1" data-original="#000000" class=""></path><path fill="#ffbb26" d="M462.378 208.314c0 54.532-29.275 100.233-69.463 131.157-18.557 14.279-10.675 59.2-15.894 61.958h-139.6c-3.263-1.72-.293-42.73-17-58.3-38.793-36.165-75.089-77.877-75.089-134.813a158.519 158.519 0 0 1 317.038 0z" opacity="1" data-original="#ffbb26" class=""></path><path fill="#f9a01e" d="M462.375 208.316c0 54.535-29.267 100.232-69.461 131.157-18.556 14.281-10.669 59.2-15.9 61.952h-139.6c-1.157-.614-1.535-6.21-2.282-13.862C326.206 350.725 392 244.662 392 119.551a349.584 349.584 0 0 0-2.875-44.888 158.369 158.369 0 0 1 73.25 133.653z" opacity="1" data-original="#f9a01e"></path><path d="M378.509 407.43h-142.57l-1.313-.693c-3.882-2.048-4.265-6.071-5.188-15.794-1.218-12.809-3.256-34.25-13.1-43.426-39.991-37.284-77-79.952-77-139.2 0-90.715 73.8-164.518 164.519-164.518s164.519 73.8 164.519 164.518a157.058 157.058 0 0 1-20.422 77.358c-12.352 22.123-29.639 41.824-51.383 58.555-9.876 7.6-10.674 28.5-11.2 42.331-.447 11.719-.672 17.6-5.547 20.178zm-136.545-12h130.9c.259-2.477.4-6.169.521-9.331.613-16.069 1.54-40.352 15.875-51.383 43.285-33.306 67.123-78.2 67.123-126.4 0-84.1-68.42-152.518-152.519-152.518S151.34 124.215 151.34 208.313c0 54.666 35.172 94.992 73.181 130.426C237.7 351.022 240 375.3 241.383 389.808c.176 1.842.374 3.93.576 5.622z" fill="#000000" opacity="1" data-original="#000000" class=""></path><path d="M422.112 278.286H195.649V138.214h12v128.072h214.463z" fill="#000000" opacity="1" data-original="#000000" class=""></path><path fill="#d22732" d="M231.519 216.261h30.849v56.026h-30.849z" opacity="1" data-original="#d22732"></path><path d="M262.368 278.286h-30.849a6 6 0 0 1-6-6v-56.025a6 6 0 0 1 6-6h30.849a6 6 0 0 1 6 6v56.025a6 6 0 0 1-6 6zm-24.849-12h18.849v-44.025h-18.849z" fill="#000000" opacity="1" data-original="#000000" class=""></path><path fill="#89c45e" d="M299.15 190.826h30.849v81.461H299.15z" opacity="1" data-original="#89c45e"></path><path d="M330 278.286h-30.85a6 6 0 0 1-6-6v-81.461a6 6 0 0 1 6-6H330a6 6 0 0 1 6 6v81.461a6 6 0 0 1-6 6zm-24.849-12H324v-69.461h-18.85z" fill="#000000" opacity="1" data-original="#000000" class=""></path><path fill="#3d5ca9" d="M364.546 148.47h30.849v123.817h-30.849z" opacity="1" data-original="#3d5ca9"></path><path d="M395.4 278.286h-30.854a6 6 0 0 1-6-6V148.47a6 6 0 0 1 6-6H395.4a6 6 0 0 1 6 6v123.816a6 6 0 0 1-6 6zm-24.849-12H389.4V154.47h-18.854zM229.043 159.313l123.39-59.572 5.22 10.812-123.39 59.572z" fill="#000000" opacity="1" data-original="#000000" class=""></path><path d="m358.715 130.697-11.843-1.937 3.488-21.316-21.913-5.869 3.104-11.592 32.406 8.68z" fill="#000000" opacity="1" data-original="#000000" class=""></path><path fill="#b4b4c1" d="M380.362 378.653v48.8a31.671 31.671 0 0 1-31.671 31.682H281.6c42.638-12.367 71.456-36 71.456-63.108a40.1 40.1 0 0 0-4.051-17.37z" opacity="1" data-original="#b4b4c1" class=""></path><path fill="#d1d0df" d="M353.059 396.023c0 27.109-28.818 50.741-71.456 63.108H265.8a31.671 31.671 0 0 1-31.671-31.682v-48.8h114.879a40.1 40.1 0 0 1 4.051 17.374z" opacity="1" data-original="#d1d0df"></path><path d="M349.4 465.13h-84.31a37.006 37.006 0 0 1-36.964-36.964v-55.51h158.236v55.51A37.006 37.006 0 0 1 349.4 465.13zm-109.274-80.474v43.51a24.992 24.992 0 0 0 24.964 24.964h84.31a24.991 24.991 0 0 0 24.964-24.964v-43.51z" fill="#000000" opacity="1" data-original="#000000" class=""></path><path d="M380.362 421.086H235.139a6 6 0 0 1 0-12h145.223a6 6 0 1 1 0 12zM305.88 0h12v24.868h-12zM94.076 199.25h24.868v12H94.076zM486.868 199.25h24.868v12h-24.868zM447.326 91.027 467.32 76.23l7.14 9.65-19.993 14.796zM447.25 319.374l7.14-9.648 19.993 14.796-7.14 9.648zM131.518 85.748l7.14-9.649 19.995 14.797-7.141 9.649z" fill="#000000" opacity="1" data-original="#000000" class=""></path><path fill="#f476c7" d="M253.884 510.9H67.92c-27.385 0-54.452-22.6-59.1-49.585-17.91-103.846 53.168-154.688 118.76-154.688l20.558.226c74.424 0 170.845 60.106 170.845 134.53v4.42a65.1 65.1 0 0 1-65.099 65.097z" opacity="1" data-original="#f476c7"></path><path d="M253.884 516.9H67.92c-14.666 0-29.556-5.708-41.93-16.072-12.4-10.387-20.6-24.057-23.088-38.492-10.227-59.317 8.514-96.565 26.036-117.366 23.39-27.768 60.266-44.345 98.643-44.345l20.623.227c38.282 0 81.969 15.142 116.8 40.5 38.68 28.168 59.982 63.691 59.982 100.025v4.42a71.179 71.179 0 0 1-71.102 71.103zM127.515 312.627c-34.816 0-68.261 14.981-89.4 40.075C15.341 379.74 7.253 416.947 14.728 460.3c4.168 24.178 28.527 44.6 53.192 44.6h185.964a59.165 59.165 0 0 0 59.1-59.1v-4.42c0-32.4-19.549-64.474-55.046-90.324-32.851-23.924-73.9-38.206-109.8-38.206z" fill="#000000" opacity="1" data-original="#000000" class=""></path><path d="M215.768 516.9h-99.856a40.271 40.271 0 0 1 0-80.541h75.109a6 6 0 0 1 0 12h-75.109a28.271 28.271 0 0 0 0 56.541h99.856a6 6 0 0 1 0 12z" fill="#000000" opacity="1" data-original="#000000" class=""></path><path d="M191.021 448.361a6 6 0 1 1 0-12 18.746 18.746 0 1 0 0-37.492h-9.229a6 6 0 0 1 0-12h9.229a30.746 30.746 0 1 1 0 61.492zM192.31 482.632h-72.686a6 6 0 1 1 0-12h72.686a6 6 0 0 1 0 12z" fill="#000000" opacity="1" data-original="#000000" class=""></path><path d="M162.493 418.51a6 6 0 0 1-1.563-11.794 21.262 21.262 0 0 0 10.335-34.626 6 6 0 1 1 8.973-7.967 33.262 33.262 0 0 1-16.175 54.177 6.049 6.049 0 0 1-1.57.21zM264.1 477.665a6 6 0 0 1-1.563-11.794 21.262 21.262 0 0 0 10.335-34.626 6 6 0 1 1 8.973-7.967 33.262 33.262 0 0 1-16.175 54.177 6 6 0 0 1-1.57.21z" fill="#000000" opacity="1" data-original="#000000" class=""></path><path d="M308.662 486.786a6 6 0 0 1-6-6 20.739 20.739 0 0 0-20.716-20.716 6 6 0 0 1 0-12 32.753 32.753 0 0 1 32.716 32.716 6 6 0 0 1-6 6zM50.092 412.307a6 6 0 0 1-5.782-4.415 33.26 33.26 0 0 1 38.49-41.416 6 6 0 1 1-2.317 11.773 21.262 21.262 0 0 0-24.6 26.469 6.007 6.007 0 0 1-5.79 7.589zM252.672 435.738a6 6 0 0 1-5.783-4.415 33.262 33.262 0 0 1 38.49-41.416 6 6 0 1 1-2.316 11.774 21.263 21.263 0 0 0-24.6 26.468 6.007 6.007 0 0 1-5.789 7.589zM245.035 516.688a5.986 5.986 0 0 1-2.51-.552 33.262 33.262 0 0 1-6.877-56.121 6 6 0 0 1 7.514 9.357 21.261 21.261 0 0 0 4.391 35.867 6 6 0 0 1-2.518 11.449z" fill="#000000" opacity="1" data-original="#000000" class=""></path><path d="M56.213 388a6 6 0 0 1-5.177-2.958 20.74 20.74 0 0 0-28.361-7.349 6 6 0 1 1-6.085-10.341 32.754 32.754 0 0 1 44.788 11.6A6 6 0 0 1 56.213 388zM161.262 360.014a6 6 0 0 1-5.259-3.1 21.261 21.261 0 0 0-36.089-1.821 6 6 0 0 1-9.873-6.822 33.263 33.263 0 0 1 56.469 2.846 6 6 0 0 1-5.248 8.9z" fill="#000000" opacity="1" data-original="#000000" class=""></path><path d="M137.521 346.732a6 6 0 0 1-5.656-8.005 20.717 20.717 0 0 0-12.608-26.445 6 6 0 1 1 4.007-11.31 32.715 32.715 0 0 1 19.913 41.762 6 6 0 0 1-5.656 3.998zM38.526 476.2a6 6 0 0 1-5.109-2.845 33.262 33.262 0 0 1 25.21-50.608 6 6 0 1 1 1.1 11.949 21.263 21.263 0 0 0-16.108 32.347 6 6 0 0 1-5.1 9.157zM99.625 417.091a33.124 33.124 0 0 1-17.125-4.755 6 6 0 0 1 6.2-10.277 21.263 21.263 0 0 0 32.151-16.5 6 6 0 1 1 11.961.967 33.245 33.245 0 0 1-33.185 30.561zM221.3 370.97a33.121 33.121 0 0 1-17.124-4.755 6 6 0 0 1 6.2-10.277 21.262 21.262 0 0 0 32.151-16.5 6 6 0 0 1 11.961.967A33.244 33.244 0 0 1 221.3 370.97zM18.088 327.941a6 6 0 0 1-5.419-8.569 66.905 66.905 0 0 1 35.913-33.636 6 6 0 0 1 4.427 11.153 54.948 54.948 0 0 0-29.495 27.62 6 6 0 0 1-5.426 3.432z" fill="#000000" opacity="1" data-original="#000000" class=""></path></g></g></svg>