<svg xmlns="http://www.w3.org/2000/svg" xmlns:xlink="http://www.w3.org/1999/xlink" width="512" height="512" x="0" y="0" viewBox="0 0 512 512" style="enable-background:new 0 0 512 512" xml:space="preserve" class=""><g><path fill="#2f87aa" d="M257.646 52.485c-114.879 0-208.004 94.309-208.004 209.178 0 71.922 36.508 133.852 92 173.852h232.002c55.492-40 91.996-101.93 91.996-173.852.001-114.869-93.12-209.178-207.994-209.178z" opacity="1" data-original="#2f87aa"></path><path d="M94 83.513h8v-8h8v-8h-8v-8h-8v8h-8v8h8zM402 283.515h8v-8h8v-8h-8v-8h-8v8h-8v8h8z" fill="#000000" opacity="1" data-original="#000000"></path><path fill="#e9a953" d="M394 83.513h8v-8h8v-8h-8v-8h-8v8h-8v8h8z" opacity="1" data-original="#e9a953"></path><path fill="#ffefa6" d="M90 215.513h-8v8h-8v8h8v8h8v-8h8v-8h-8z" opacity="1" data-original="#ffefa6"></path><path fill="#ffffff" d="M270 103.513h8v-12h12v-8h-12v-12h-8v12h-12v8h12zM138 127.513v304.002h120v-72h100V127.513z" opacity="1" data-original="#ffffff" class=""></path><path fill="#ffe787" d="m414 371.624-70.32 58.797c-1.469 1.215-4.039 1.223-5.52 0L266 371.155v80.359h148z" opacity="1" data-original="#ffe787"></path><path d="M422 378.46v-18.945h-56V119.513H130v312.002H78v8h180v20h164v-20h12v-8h-12zm-156 73.055v-80.359l72.586 59.266c1.469 1.215 3.188 1.223 4.668 0L414 371.624v79.891zM138 127.513h220v232.002H258v72H138zm203.984 294.634-66.133-54.633h132.266z" fill="#000000" opacity="1" data-original="#000000"></path><path fill="#ffe787" d="m275.852 367.515 66.132 54.632 66.133-54.632z" opacity="1" data-original="#ffe787"></path><path d="M46 431.515h16v8H46zM450 431.515h16v8h-16z" fill="#000000" opacity="1" data-original="#000000"></path><path fill="#de856f" d="M66 375.515h-8v8h-8v8h8v8h8v-8h8v-8h-8z" opacity="1" data-original="#de856f"></path><path fill="#a6a6a6" d="M158 171.513h-8v-32h36v8h-28zM338 319.515h8v28h-8z" opacity="1" data-original="#a6a6a6"></path><path fill="#de3838" d="M294 223.513h8v-24h24v-8h-24v-24h-8v24h-24v8h24z" opacity="1" data-original="#de3838" class=""></path><path d="M166 267.515h160v8H166zM166 319.515h160v8H166zM166 347.515h68v8h-68zM166 295.515h160v8H166z" fill="#000000" opacity="1" data-original="#000000"></path><path fill="#de3838" d="m220 146.878-49.242 94.791 7.098 3.688 17.582-33.844h49.125l17.582 33.844 7.098-3.688zm0 56.635h-20.406L220 164.233l20.406 39.279H220z" opacity="1" data-original="#de3838" class=""></path></g></svg>