<svg xmlns="http://www.w3.org/2000/svg" xmlns:xlink="http://www.w3.org/1999/xlink" width="512" height="512" x="0" y="0" viewBox="0 0 512.088 512.088" style="enable-background:new 0 0 512 512" xml:space="preserve" class=""><g><path d="M151.059 203.622v81.985a6.89 6.89 0 0 0 3.814 6.171l.472.235c63.415 31.464 137.984 31.464 201.399 0l.472-.235a6.89 6.89 0 0 0 3.814-6.171v-81.985H151.059z" style="" fill="#536169" data-original="#889daa" class="" opacity="1"></path><path d="M361.034 203.624v18.13l-97.22 38.01c-5 1.95-10.54 1.95-15.54 0l-97.22-38.01v-18.13h209.98z" style="" fill="#3d4d54" data-original="#728d9a" class="" opacity="1"></path><path d="M361.034 203.624v81.98c0 2.62-1.48 5.01-3.82 6.17-.15.08-.31.16-.47.24a225.647 225.647 0 0 1-37.2 14.52 8.345 8.345 0 0 0 2.49-5.96v-96.95h39z" style="" fill="#3d4d54" data-original="#728d9a" class="" opacity="1"></path><path d="m248.275 114.944-146.027 57.093c-5.69 2.225-5.69 10.277 0 12.501l146.027 57.093a21.336 21.336 0 0 0 15.538 0l146.027-57.093c5.69-2.225 5.69-10.277 0-12.501l-146.027-57.093a21.336 21.336 0 0 0-15.538 0z" style="" fill="#536169" data-original="#889daa" class="" opacity="1"></path><path d="m409.844 184.534-25.94 10.14c-.11-2.69-1.66-5.33-4.64-6.49l-159.11-62.21c-.02-.01-.03-.01-.05-.02l28.17-11.01c5-1.95 10.54-1.95 15.54 0l146.03 57.09c5.69 2.23 5.69 10.28 0 12.5z" style="" fill="#3d4d54" data-original="#728d9a" class="" opacity="1"></path><path d="M214.127 398.609h-24.34a7.53 7.53 0 0 1-7.53-7.53v-67.212c0-10.88 8.82-19.701 19.701-19.701 10.88 0 19.701 8.82 19.701 19.701v67.212a7.532 7.532 0 0 1-7.532 7.53z" style="" fill="#ffd250" data-original="#ffd250" class=""></path><path d="M221.654 323.869v67.205c0 4.16-3.37 7.54-7.53 7.54h-19.7c4.16 0 7.53-3.38 7.53-7.54v-67.205c0-5.44-2.21-10.37-5.77-13.93a19.491 19.491 0 0 0-4.08-3.13c2.9-1.68 6.26-2.64 9.85-2.64 5.44 0 10.37 2.21 13.93 5.77a19.65 19.65 0 0 1 5.77 13.93z" style="" fill="#eda900" data-original="#ffc433" class="" opacity="1"></path><path d="M256.044 7.5C118.775 7.5 7.5 118.775 7.5 256.044s111.275 248.544 248.544 248.544 248.544-111.275 248.544-248.544S393.313 7.5 256.044 7.5zM91.046 385.414c-27.979-35.628-44.66-80.549-44.66-129.37 0-116.067 93.591-209.658 209.658-209.658 48.821 0 93.742 16.681 129.37 44.66 2.857 2.246 3.078 6.496.511 9.062L100.109 385.925c-2.567 2.566-6.817 2.346-9.063-.511zm164.998 80.288c-48.821 0-93.742-16.681-129.37-44.66-2.857-2.246-3.078-6.496-.511-9.062l285.816-285.816c2.566-2.566 6.817-2.346 9.062.511 27.979 35.628 44.66 80.549 44.66 129.37.001 116.066-93.59 209.657-209.657 209.657z" style="" fill="#f1344a" data-original="#ff7383" class="" opacity="1"></path><path d="M307.261 12.793c97.691 33.473 167.915 126.111 167.915 235.161 0 137.269-111.275 248.544-248.544 248.544a249.185 249.185 0 0 1-51.217-5.293c25.282 8.681 52.409 13.383 80.629 13.383 137.269 0 248.544-111.275 248.544-248.544 0-119.716-84.629-219.652-197.327-243.251z" style="" fill="#fa0020" data-original="#ff546a" class="" opacity="1"></path><path d="M224.707 313.437c44.633 6.225 90.704-.916 132.036-21.424l.472-.235a6.89 6.89 0 0 0 3.814-6.171v-81.985M151.059 203.622v81.985a6.89 6.89 0 0 0 3.814 6.171l.472.235a226.308 226.308 0 0 0 26.911 11.256M340.001 144.731l-76.188-29.788a21.336 21.336 0 0 0-15.538 0l-61.037 23.864M317.502 220.64l92.337-36.102c5.69-2.225 5.69-10.277 0-12.501l-30.285-11.841" style="stroke-width:15;stroke-linecap:round;stroke-linejoin:round;stroke-miterlimit:10;" fill="none" stroke="#000000" stroke-width="15" stroke-linecap="round" stroke-linejoin="round" stroke-miterlimit="10" data-original="#000000" class=""></path><path d="m154.969 151.424-52.721 20.613c-5.69 2.225-5.69 10.277 0 12.501l143.243 56.005" style="stroke-width:15;stroke-linecap:round;stroke-linejoin:round;stroke-miterlimit:10;" fill="none" stroke="#000000" stroke-width="15" stroke-linecap="round" stroke-linejoin="round" stroke-miterlimit="10" data-original="#000000" class=""></path><path d="m256.044 178.287-51.202 25.901a5.013 5.013 0 0 0-2.75 4.472v75.415M220.719 317.841c.61 1.899.939 3.924.939 6.026v67.212a7.53 7.53 0 0 1-7.53 7.53h-24.34a7.53 7.53 0 0 1-7.53-7.53v-35.193" style="stroke-width:15;stroke-linecap:round;stroke-linejoin:round;stroke-miterlimit:10;" fill="none" stroke="#000000" stroke-width="15" stroke-linecap="round" stroke-linejoin="round" stroke-miterlimit="10" data-original="#000000" class=""></path><circle cx="256.044" cy="256.044" r="248.544" style="stroke-width:15;stroke-linecap:round;stroke-linejoin:round;stroke-miterlimit:10;" fill="none" stroke="#000000" stroke-width="15" stroke-linecap="round" stroke-linejoin="round" stroke-miterlimit="10" data-original="#000000" class=""></circle><path d="M385.927 100.107c2.568-2.568 2.339-6.819-.517-9.062-35.627-27.978-80.547-44.66-129.368-44.659-116.065.001-209.656 93.594-209.656 209.659 0 48.819 16.681 93.738 44.659 129.365 2.243 2.856 6.494 3.085 9.062.517l285.82-285.82zM388.28 418.93c-36.037 29.263-82.033 46.771-132.233 46.772-48.82.001-93.741-16.681-129.368-44.659-2.856-2.243-3.085-6.494-.517-9.062l285.82-285.82c2.568-2.568 6.819-2.339 9.062.517 27.978 35.627 44.659 80.546 44.659 129.365 0 53.309-19.744 101.877-52.34 138.814" style="stroke-width:15;stroke-linecap:round;stroke-linejoin:round;stroke-miterlimit:10;" fill="none" stroke="#000000" stroke-width="15" stroke-linecap="round" stroke-linejoin="round" stroke-miterlimit="10" data-original="#000000" class=""></path></g></svg>