<svg xmlns="http://www.w3.org/2000/svg" xmlns:xlink="http://www.w3.org/1999/xlink" width="512" height="512" x="0" y="0" viewBox="0 0 1500 1500" style="enable-background:new 0 0 512 512" xml:space="preserve" class=""><g><g fill="#fff"><path d="M1107.274 959.992h3.851V721.907c-1.246.34-2.606.793-3.851 1.36zM749.919 948.779v12.912c36.018-21.974 60.031-61.73 60.031-106.923V836.42c-36.924 23.785-60.031 66.6-60.031 112.359zM1107.274 516.61c.292.356.539.747.827 1.107l1.098-1.096v-.064l-.34-36.585h-1.584v36.638zM1107.274 702.199c1.244-.339 2.605-.68 3.851-1.019l-.453-46.666v-.113c-1.08 1.184-2.266 2.261-3.397 3.395v44.403zM1107.274 203.15l3.851 1.133V180.61a69.842 69.842 0 0 0-6.909-30.355c2.038 5.777 3.058 12.12 3.058 18.576z" fill="#ffffff" opacity="1" data-original="#ffffff" class=""></path><path d="m759.141 620.314-103.07-80.872h-26.052c-5.55 0-9.969-4.531-9.969-10.081v-68.979c0-24.238 17.217-44.513 39.983-49.27V299.997c0-.113.113-.227.113-.339 0-1.02.227-2.152.567-3.172.227-.34.34-.68.567-1.02.34-.68.791-1.359 1.358-1.925.227-.339.567-.68.907-.906.567-.566 1.131-.906 1.811-1.246.453-.226.794-.453 1.247-.68.113 0 .34-.113.453-.227l92.991-28.429c45.08-33.867 48.591-105.224-.453-142.036H241.063v70.678c0 10.421-3.172 20.048-8.608 28.09-1.811 2.718-3.963 5.21-6.23 7.475-9.059 9.061-21.746 14.724-35.564 14.724h-70.564v912.583l30.468 38.511c44.513 56.293 112.362 89.254 184.057 89.254h63.203c72.829 0 131.727-58.672 132.18-131.389H190.093a9.909 9.909 0 0 1-9.966-9.968 9.909 9.909 0 0 1 9.966-9.967h339.911v-39.983H190.093c-5.55 0-9.966-4.531-9.966-10.081s4.416-9.967 9.966-9.967h339.911v-2.492c0-48.365 39.19-87.554 87.554-87.554h67.282c15.969 0 31.148-2.945 45.19-8.495v-28.09c0-56.859 32.509-106.243 79.966-130.595v-87.894c.001-40.775-18.687-79.285-50.855-104.543zM180.127 340.093c0-5.55 4.416-10.08 9.966-10.08h349.99c5.439 0 9.969 4.53 9.969 10.08v279.88c0 5.55-4.53 10.081-9.969 10.081h-349.99c-5.55 0-9.966-4.531-9.966-10.081zm9.966 339.911h191.081c5.55 0 9.966 4.531 9.966 9.967 0 5.55-4.416 10.081-9.966 10.081H190.093c-5.55 0-9.966-4.531-9.966-10.081 0-5.436 4.417-9.967 9.966-9.967zm0 60.031H620.05a9.91 9.91 0 0 1 9.969 9.967 9.909 9.909 0 0 1-9.969 9.967H190.093c-5.55 0-9.966-4.417-9.966-9.967s4.417-9.967 9.966-9.967zm191.081 289.961H190.093c-5.55 0-9.966-4.531-9.966-9.967 0-5.55 4.416-10.081 9.966-10.081h191.081c5.55 0 9.966 4.531 9.966 10.081 0 5.436-4.416 9.967-9.966 9.967zm298.794-90.047c0 5.55-4.416 10.081-9.966 10.081H190.093c-5.55 0-9.966-4.531-9.966-10.081V820.001a9.909 9.909 0 0 1 9.966-9.967h479.909a9.909 9.909 0 0 1 9.966 9.967z" fill="#ffffff" opacity="1" data-original="#ffffff" class=""></path></g><path fill="#dfe4eb" d="M664.094 430.681c-.243.044-.488.089-.709.133-1.019.226-2.039.566-3.058.906l-.021.139c1.243-.437 2.477-.904 3.788-1.178zM665.197 430.474c-.271.054-.567.108-.863.162a30.305 30.305 0 0 1 5.959-.602c16.713 0 30.307 13.594 30.307 30.307v59.047h.047v-59.012c0-16.763-13.591-30.355-30.354-30.355-1.698.001-3.512.114-5.096.453zM828.865 335.105l201.047 64.448 1.134-.34-185.644-59.465zM1079.071 492.318c-.072.171-.221.275-.301.44 10.928 6.135 20.607 14.223 28.505 23.852v-36.639h-32.195c4.132 2.61 6.062 7.791 3.991 12.347zM1029.912 120.013H759.547c49.043 36.811 45.533 108.169.453 142.035l266.967-81.552a10.428 10.428 0 0 1 5.89 0l74.417 22.653V168.83c0-6.456-1.02-12.799-3.058-18.576a59.186 59.186 0 0 0-56.406-40.889h-7.929c.113.226.113.453.113.68-.001 5.551-4.532 9.968-10.082 9.968z" opacity="1" data-original="#dfe4eb" class=""></path><path fill="#dfe4eb" d="M620.004 1069.974a9.909 9.909 0 0 1 9.966-9.967h240.011V969.96a9.91 9.91 0 0 1 9.967-9.967h227.325V723.201c-50.559 16.516-87.329 64.132-87.329 120.241v86.648c0 5.551-4.531 9.967-9.967 9.967-5.55 0-10.079-4.417-10.079-9.967v-86.648c0-67.234 45.58-123.93 107.376-141.13v-44.516c-19.831 19.878-47.147 32.171-77.361 32.171-60.597 0-109.981-49.271-109.981-109.981 0-44.431 26.549-82.696 64.571-100.014h-74.538c0 5.55-4.531 10.081-9.967 10.081H860.24c-34.547 0-70.224-21.407-70.224-57.313v-88.687l-110.094-30.808v97.748c23.219 4.53 40.661 24.918 40.661 49.384v68.978c0 5.551-4.416 10.081-9.966 10.081h-54.595l103.073 80.872c32.166 25.258 50.856 63.769 50.856 104.544v87.894a41.827 41.827 0 0 1 3.17-1.586 61.335 61.335 0 0 1 3.964-1.812c1.474-.68 3.058-1.359 4.644-1.925a161.412 161.412 0 0 1 13.593-4.758c2.265-.68 4.529-1.246 6.908-1.812 2.153-.566 4.419-1.02 6.684-1.586 6.57-1.246 13.365-2.039 20.162-2.378 2.605-.113 5.096-.227 7.588-.227 23.674 0 46.892 5.777 67.846 16.65l-3.851-42.248c-.452-5.437 3.624-10.307 9.062-10.874 5.55-.453 10.421 3.625 10.873 9.174l5.55 61.504c0 .453-.113.906-.113 1.472-.112.453 0 .793-.112 1.246-.227 1.019-.567 2.039-1.134 2.945 0 .113 0 .339-.113.453-.68 1.019-1.473 1.925-2.492 2.605-.34.34-.68.453-1.132.68-.453.227-.906.68-1.359.793l-61.617 23.106c-1.132.453-2.378.567-3.51.567-4.079 0-7.928-2.379-9.402-6.456-1.925-5.211.68-10.987 5.89-12.912l41.456-15.404c-17.33-8.608-36.359-13.252-55.841-13.252-2.378 0-4.87.113-7.248.226-2.493.113-4.984.34-7.364.68-2.492.34-4.983.68-7.475 1.133-16.196 2.718-31.261 8.608-44.626 16.99v19.029c0 45.193-24.014 84.949-60.031 106.923v68.299c0 5.55-4.418 9.967-9.967 9.967s-9.967-4.417-9.967-9.967v-58.558c-14.045 5.55-29.223 8.495-45.193 8.495h-67.279c-48.365 0-87.556 39.19-87.556 87.554v2.492h39.983c5.55 0 10.081 4.418 10.081 9.967 0 5.55-4.531 10.08-10.081 10.08h-39.983v39.983h39.983c5.55 0 10.081 4.418 10.081 9.967 0 5.55-4.531 9.968-10.081 9.968h-39.983c-.452 72.716-59.351 131.388-132.182 131.388h-63.202c-71.697 0-139.543-32.96-184.057-89.254l-30.468-38.51v197.762c0 9.854 4.983 18.576 12.686 23.786 1.473 1.019 3.058 1.812 4.87 2.605a36.598 36.598 0 0 0 5.323 1.699c1.814.339 3.739.566 5.777.566H569.94c5.55 0 10.081 4.418 10.081 9.968 0 .226 0 .339-.113.566h40.21c-.113-.227-.113-.34-.113-.566v-319.975z" opacity="1" data-original="#dfe4eb" class=""></path><path fill="#ffffff" d="M843.931 432.74v-71.811l-33.98-10.873v82.684c0 23.333 25.598 37.264 50.289 37.264h31.828c-24.013-.793-48.137-14.611-48.137-37.264z" opacity="1" data-original="#ffffff" class=""></path><path fill="#ff7a7a" d="M234.042 384.04h295.962v225.965H234.042z" opacity="1" data-original="#ff7a7a" class=""></path><path fill="#ffdc48" d="M234.042 863.948h425.991v66.034H234.042z" opacity="1" data-original="#ffdc48" class=""></path><path fill="#77adfc" d="M1169.909 470.004H1212.384c22.88 0 47.573-15.291 47.573-39.982v-82.117l-148.832 47.005-3.851 1.246-43.155 13.591h-.113l-16.99 5.437-14.045 4.417c-1.02.227-2.038.453-3.058.453-1.019 0-2.038-.227-3.058-.453l-182.923-58.672v71.811c0 22.653 24.124 36.471 48.138 37.264h7.928c4.756 0 8.835 3.511 9.741 8.042.113.68.227 1.246.227 1.925h74.538c1.428-.65 2.836-1.335 4.294-1.925 12.686-5.21 26.617-8.042 41.116-8.042 14.272 0 28.203 2.718 41.342 8.042.906.339 1.813.68 2.718 1.132.427.195.718.548 1.106.793h84.862c0-.68.113-1.246.227-1.925.793-4.531 4.869-8.042 9.74-8.042z" opacity="1" data-original="#77adfc" class=""></path><path fill="#ff7a7a" d="M673.919 1379.982h196.063v-266.061H673.919zm18.989-177.097 59.995-59.995a9.982 9.982 0 0 1 10.895-2.168 10.004 10.004 0 0 1 6.172 9.236v149.989h29.992c5.525 0 9.999 4.474 9.999 9.999s-4.474 9.999-9.999 9.999h-79.989c-5.519 0-9.999-4.474-9.999-9.999s4.48-9.999 9.999-9.999h29.998v-125.848l-42.928 42.923c-3.905 3.905-10.232 3.905-14.136 0s-3.904-10.232.001-14.137z" opacity="1" data-original="#ff7a7a" class=""></path><path fill="#77adfc" d="m1107.274 223.991-39.87-12.12h-.113L744.37 310.526l63.655 17.896 20.84 6.683 16.537 4.643 185.644 59.465 76.228-24.126 3.85-1.245 143.734-45.42 100.013-29.11-243.747-74.075-3.85-1.133z" opacity="1" data-original="#77adfc" class=""></path><path fill="#ffdc48" d="M1173.922 914.012v465.975h206.03V914.012zm136.032 275.915c0 5.55-4.532 10.081-10.082 10.081h-79.966c-5.547 0-9.966-4.531-9.966-10.081s4.419-9.968 9.966-9.968h70v-60.031h-49.952c-5.547 0-10.079-4.417-10.079-9.967s4.532-9.967 10.079-9.967h49.952v-60.031h-70c-5.547 0-9.966-4.418-9.966-9.968s4.419-9.967 9.966-9.967h79.966c5.55 0 10.082 4.417 10.082 9.967zM670.293 430.034c-2.041 0-4.032.216-5.959.602l-.241.045c-1.311.274-2.544.74-3.788 1.178-.406.143-.839.225-1.237.385-.343.132-.687.283-1.03.43a30.408 30.408 0 0 0-8.953 6.068c-.328.332-.61.693-.922 1.034-.961 1.033-1.882 2.103-2.693 3.262-.384.545-.683 1.131-1.026 1.697-.68 1.12-1.347 2.248-1.879 3.457-.133.291-.241.598-.362.892-1.403 3.488-2.222 7.273-2.222 11.257v59.047h60.62v-59.047c0-16.713-13.594-30.307-30.308-30.307z" opacity="1" data-original="#ffdc48" class=""></path><path fill="#77adfc" d="M923.896 1013.907v366.075h196.063v-366.075h-12.684zm136.042 166.049c0 5.52-4.48 9.999-9.999 9.999H979.95v59.995h69.989c5.52 0 9.999 4.474 9.999 9.999 0 5.52-4.48 9.999-9.999 9.999H969.95c-5.525 0-9.999-4.48-9.999-9.999v-79.994a9.996 9.996 0 0 1 9.999-9.999h69.989v-59.99H969.95c-5.525 0-9.999-4.474-9.999-9.999s4.474-9.999 9.999-9.999h79.988c5.52 0 9.999 4.474 9.999 9.999v79.989zM134.258 220.996h56.398c16.713 0 30.313-13.594 30.313-30.307v-56.484l-25.55 25.55z" opacity="1" data-original="#77adfc" class=""></path><path fill="#1a164c" d="M1389.921 859.984h-259.947c-5.55 0-9.966 4.531-9.966 9.967v90.047h-240.01a9.91 9.91 0 0 0-9.969 9.967v90.046h-240.01a9.911 9.911 0 0 0-9.969 9.967v319.976c0 .227 0 .34.113.567.227 5.323 4.532 9.401 9.855 9.401h759.902c5.547 0 10.079-4.417 10.079-9.968V869.951c.001-5.436-4.531-9.967-10.078-9.967zm-519.892 520.003H639.985v-300.041h230.044zm249.978 0H889.964V979.933h230.044v400.054zm259.945 0h-240.01V880.032h240.01z" opacity="1" data-original="#1a164c" class=""></path><path fill="#ffffff" d="M1379.952 880.032v33.98h-206.03v465.975h-33.98V880.032zM923.896 1013.907h183.378v-33.98H889.916v400.055h33.98zM673.919 1113.921h196.062v-33.98H639.939v300.041h33.98z" opacity="1" data-original="#ffffff" class=""></path><path fill="#1a164c" d="m707.044 1217.021 42.928-42.923v125.848h-29.998c-5.519 0-9.999 4.474-9.999 9.999s4.48 9.999 9.999 9.999h79.989c5.525 0 9.999-4.474 9.999-9.999s-4.474-9.999-9.999-9.999h-29.992v-149.989c0-4.043-2.439-7.688-6.172-9.236a9.981 9.981 0 0 0-10.895 2.168l-59.995 59.995c-3.905 3.905-3.905 10.232 0 14.136 3.903 3.906 10.23 3.906 14.135.001zM1049.938 1089.968H969.95c-5.525 0-9.999 4.474-9.999 9.999s4.474 9.999 9.999 9.999h69.989v59.99H969.95a9.996 9.996 0 0 0-9.999 9.999v79.994c0 5.52 4.474 9.999 9.999 9.999h79.988c5.52 0 9.999-4.48 9.999-9.999 0-5.525-4.48-9.999-9.999-9.999h-69.989v-59.995h69.989c5.52 0 9.999-4.48 9.999-9.999v-79.988c.001-5.526-4.479-10-9.999-10zM1219.92 1179.956a9.996 9.996 0 0 0-9.999 9.999c0 5.52 4.474 9.999 9.999 9.999h79.994c5.525 0 9.999-4.48 9.999-9.999v-159.982a9.996 9.996 0 0 0-9.999-9.999h-79.994c-5.525 0-9.999 4.474-9.999 9.999s4.474 9.999 9.999 9.999h69.995v59.995h-49.996c-5.525 0-9.999 4.474-9.999 9.999s4.474 9.999 9.999 9.999h49.996v59.99h-69.995zM729.985 943.343v86.648c0 5.55 4.418 9.967 9.967 9.967s9.967-4.417 9.967-9.967V943.343c0-45.42 24.012-85.29 60.031-107.603 13.365-8.382 28.43-14.272 44.626-16.99 2.492-.453 4.983-.793 7.475-1.133a77.8 77.8 0 0 1 7.364-.68c2.378-.113 4.87-.226 7.248-.226 19.481 0 38.511 4.644 55.841 13.252l-41.456 15.404c-5.21 1.925-7.815 7.702-5.89 12.912 1.474 4.077 5.323 6.456 9.402 6.456 1.132 0 2.378-.113 3.51-.567l61.617-23.106c.453-.113.906-.566 1.359-.793.452-.226.792-.339 1.132-.68 1.019-.68 1.811-1.586 2.492-2.605.113-.113.113-.34.113-.453.567-.906.907-1.926 1.134-2.945.112-.453 0-.793.112-1.246 0-.566.113-1.019.113-1.472l-5.55-61.504c-.452-5.55-5.323-9.627-10.873-9.174-5.438.567-9.514 5.437-9.062 10.874l3.851 42.248c-20.954-10.873-44.173-16.65-67.846-16.65-2.492 0-4.983.113-7.588.227-6.797.339-13.591 1.132-20.162 2.378-2.265.566-4.531 1.02-6.684 1.586-2.378.566-4.643 1.132-6.908 1.812a161.412 161.412 0 0 0-13.593 4.758c-1.586.566-3.17 1.246-4.644 1.925a61.335 61.335 0 0 0-3.964 1.812 41.457 41.457 0 0 0-3.17 1.586c-47.457 24.353-79.964 73.737-79.964 130.597zM999.898 843.442v86.648c0 5.551 4.53 9.967 10.079 9.967 5.437 0 9.967-4.417 9.967-9.967v-86.648c0-56.11 36.77-103.726 87.329-120.241 1.289-.421 2.544-.913 3.851-1.293a125.942 125.942 0 0 1 35.452-5.096c19.481 0 38.509 4.644 55.839 13.252l-41.454 15.404c-5.098 1.925-7.703 7.702-5.777 12.912 1.471 3.964 5.323 6.456 9.287 6.456 1.246 0 2.38-.113 3.51-.566l61.617-23.107c.565-.113 1.019-.566 1.472-.793.34-.226.794-.339 1.132-.68.906-.68 1.813-1.585 2.38-2.605h.113c0-.113 0-.34.113-.453.452-.906.906-1.926 1.018-2.945.113-.453.113-.793.113-1.246 0-.567.227-1.02.113-1.473l-5.437-61.617c-.565-5.437-5.437-9.515-10.873-9.062-5.55.567-9.627 5.437-9.062 10.874l3.739 42.248a146.57 146.57 0 0 0-67.846-16.65c-12.234 0-24.126 1.472-35.452 4.418-1.305.324-2.559.772-3.851 1.132-61.792 17.201-107.372 73.897-107.372 141.131zM1032.857 180.497a10.428 10.428 0 0 0-5.89 0L760 262.048l-92.992 28.43c-.113.113-.34.227-.452.227-.453.226-.792.453-1.246.68-.68.339-1.247.68-1.813 1.246-.34.227-.679.566-.906.906-.567.566-1.02 1.246-1.361 1.925-.227.339-.339.68-.565 1.019-.34 1.02-.565 2.152-.565 3.172 0 .113-.113.227-.113.339v111.114c-22.767 4.758-39.983 25.032-39.983 49.271v68.978c0 5.551 4.416 10.081 9.966 10.081H710.617c5.55 0 9.966-4.53 9.966-10.081v-68.978c0-24.466-17.442-44.854-40.661-49.384v-97.748l110.094 30.808v88.687c0 35.905 35.678 57.313 70.224 57.313h39.756c5.437 0 9.967-4.531 9.967-10.081 0-.68-.113-1.246-.227-1.925-.906-4.531-4.984-8.042-9.741-8.042H860.24c-24.691 0-50.289-13.931-50.289-37.264v-82.684l33.98 10.873 182.923 58.672c1.02.227 2.039.453 3.058.453 1.02 0 2.038-.227 3.058-.453l14.045-4.417 16.99-5.437h.113l43.155-13.591 3.851-1.246 148.832-47.005v82.117c0 24.692-24.693 39.982-47.573 39.982H1169.908c-4.871 0-8.947 3.511-9.741 8.042-.113.68-.227 1.246-.227 1.925 0 5.55 4.417 10.081 9.967 10.081h42.475c21.861 0 41.342-9.288 53.689-23.786 8.607-10.081 13.818-22.653 13.818-36.245v-88.007l110.207-32.054 2.605-.793c4.191-1.246 7.136-5.096 7.249-9.514 0-4.418-2.945-8.382-7.136-9.627l-281.692-85.742-3.851-1.133zm-332.209 279.88v59.012H639.939v-59.012c0-1.473.113-2.945.34-4.304 0-.34.112-.68.112-1.02.227-1.246.567-2.492.906-3.737.241-.784.6-1.495.906-2.232.122-.294.23-.601.362-.892.159-.348.259-.72.433-1.067.391-.839.962-1.593 1.446-2.39.343-.566.642-1.152 1.026-1.697.807-1.143 1.728-2.211 2.693-3.262.313-.342.595-.702.922-1.034.25-.254.448-.543.707-.792 1.02-.906 2.266-1.813 3.512-2.719l2.038-1.359c.34-.113.567-.339.907-.453.597-.298 1.192-.491 1.789-.745.343-.147.687-.298 1.03-.43.419-.162.839-.384 1.258-.524 1.019-.339 2.039-.68 3.058-.906.221-.044.466-.089.709-.133l.241-.045c.296-.054.592-.108.863-.162 1.585-.339 3.399-.453 5.096-.453 16.763.001 30.355 13.593 30.355 30.356zm654.223-161.065-100.013 29.109-143.734 45.42-3.851 1.246-76.228 24.126-1.134.34-201.047-64.448-20.841-6.683-63.655-17.896-38.851-10.874 324.394-99.108 37.378 11.327h.113l39.87 12.12v.113l3.851 1.132z" opacity="1" data-original="#1a164c" class=""></path><path fill="#ffffff" d="m1029.912 200.545-324.393 99.108 38.851 10.873 322.921-98.655z" opacity="1" data-original="#ffffff" class=""></path><path fill="#1a164c" d="M569.94 1379.982H148.703c-2.038 0-3.963-.227-5.777-.566a36.681 36.681 0 0 1-5.323-1.699c-1.811-.793-3.397-1.586-4.87-2.605-7.703-5.21-12.686-13.932-12.686-23.786V240.981h70.564c13.818 0 26.504-5.663 35.566-14.724 2.265-2.265 4.416-4.758 6.23-7.476 5.437-8.041 8.608-17.669 8.608-28.09v-70.678h788.896c5.55 0 10.081-4.418 10.081-9.967 0-.227 0-.454-.113-.68-.227-5.21-4.644-9.288-9.967-9.288H230.935c-1.244 0-2.605.227-3.851.793-1.132.453-2.265 1.246-3.17 2.152L102.945 223.878c-.906.906-1.586 2.039-2.153 3.284-.454 1.246-.792 2.492-.792 3.851v1120.313c0 16.197 7.929 30.469 20.048 39.19 8.041 5.89 18.009 9.401 28.655 9.401H569.94c5.323 0 9.741-4.078 9.967-9.401.113-.227.113-.34.113-.566.001-5.55-4.53-9.968-10.08-9.968zM220.969 134.204v56.487c0 16.763-13.593 30.355-30.356 30.355h-56.406l.051-.05 61.161-61.241 25.55-25.583z" opacity="1" data-original="#1a164c" class=""></path><path fill="#1a164c" d="M540.084 330.013h-349.99c-5.55 0-9.966 4.53-9.966 10.08v279.88c0 5.55 4.416 10.081 9.966 10.081h349.99c5.439 0 9.969-4.531 9.969-10.081v-279.88c0-5.55-4.53-10.08-9.969-10.08zm-10.08 279.993H200.062V350.061h329.942z" opacity="1" data-original="#1a164c" class=""></path><path fill="#ffffff" d="M530.004 350.061v33.979H234.042v225.966h-33.98V350.061z" opacity="1" data-original="#ffffff" class=""></path><path fill="#1a164c" d="M670.002 810.034H190.093a9.909 9.909 0 0 0-9.966 9.967V939.95c0 5.55 4.416 10.081 9.966 10.081h479.909c5.55 0 9.966-4.531 9.966-10.081V820.001a9.909 9.909 0 0 0-9.966-9.967zm-9.969 119.948H200.062V829.968h459.971z" opacity="1" data-original="#1a164c" class=""></path><path fill="#ffffff" d="M660.033 829.968v33.98H234.042v66.034h-33.98V829.968z" opacity="1" data-original="#ffffff" class=""></path><path fill="#1a164c" d="M190.047 759.965h429.957c5.55 0 9.966-4.418 9.966-9.967s-4.416-9.967-9.966-9.967H190.047c-5.551 0-9.969 4.417-9.969 9.967s4.418 9.967 9.969 9.967zM190.047 700.047h191.078c5.55 0 9.969-4.53 9.969-10.08 0-5.437-4.419-9.967-9.969-9.967H190.047c-5.551 0-9.969 4.53-9.969 9.967 0 5.55 4.418 10.08 9.969 10.08zM180.078 1079.941c0 5.55 4.418 10.08 9.969 10.08H569.94c5.55 0 10.081-4.53 10.081-10.08s-4.531-9.967-10.081-9.967H190.047a9.91 9.91 0 0 0-9.969 9.967zM180.078 1139.972a9.911 9.911 0 0 0 9.969 9.968H569.94c5.55 0 10.081-4.418 10.081-9.968s-4.531-9.967-10.081-9.967H190.047a9.91 9.91 0 0 0-9.969 9.967zM381.125 1009.943H190.047c-5.551 0-9.969 4.53-9.969 10.08 0 5.437 4.418 9.967 9.969 9.967h191.078c5.55 0 9.969-4.53 9.969-9.967 0-5.55-4.419-10.08-9.969-10.08z" opacity="1" data-original="#1a164c" class=""></path><path fill="#ffdc48" d="M1027.009 627.082a10.001 10.001 0 0 1-7.068 2.931 10.015 10.015 0 0 1-7.074-2.931l-29.992-29.998c-3.905-3.905-3.899-10.237.005-14.142 3.905-3.893 10.226-3.899 14.142.006l22.919 22.924 88.16-88.156c-.288-.36-.535-.751-.827-1.107-7.898-9.629-17.576-17.717-28.505-23.852-2.32 4.739-7.913 6.849-12.839 4.769-11.327-4.984-23.445-7.475-36.018-7.475-49.611 0-89.932 40.323-89.932 89.933 0 49.611 40.322 90.047 89.932 90.047 35.679 0 66.6-20.841 81.212-51.083 5.663-11.779 8.834-25.032 8.834-38.964 0-5.264 4.173-9.591 9.474-9.867-1.231-12.562-4.856-24.398-10.298-35.161z" opacity="1" data-original="#ffdc48" class=""></path><path fill="#1a164c" d="M1119.958 579.985c0 13.932-3.17 27.184-8.834 38.964-14.612 30.242-45.533 51.083-81.212 51.083-49.611 0-89.932-40.436-89.932-90.047 0-49.61 40.322-89.933 89.932-89.933 12.572 0 24.691 2.492 36.018 7.475 4.926 2.079 10.519-.03 12.839-4.769.08-.165.229-.269.301-.44 2.071-4.556.141-9.737-3.992-12.346-.389-.245-.679-.598-1.106-.793-.906-.453-1.813-.793-2.718-1.132-13.139-5.324-27.071-8.042-41.342-8.042-14.498 0-28.43 2.832-41.116 8.042-1.459.59-2.866 1.275-4.294 1.925-38.021 17.318-64.571 55.583-64.571 100.014 0 60.71 49.384 109.981 109.981 109.981 30.215 0 57.53-12.293 77.361-32.171 1.131-1.134 2.317-2.212 3.397-3.395.145-.158.311-.294.453-.453 17.896-19.481 28.769-45.419 28.769-73.962 0-5.437-4.416-9.967-9.966-9.967-.177 0-.321.092-.495.101-5.3.274-9.473 4.602-9.473 9.865z" opacity="1" data-original="#1a164c" class=""></path><path fill="#1a164c" d="m1019.941 605.873-22.919-22.924c-3.916-3.905-10.237-3.899-14.142-.006-3.905 3.905-3.91 10.237-.005 14.142l29.992 29.998a10.013 10.013 0 0 0 7.074 2.931c2.649 0 5.193-1.056 7.068-2.931l92.125-92.125 7.867-7.868c3.905-3.905 3.905-10.232 0-14.136a9.993 9.993 0 0 0-14.136 0l-3.667 3.667-1.098 1.096z" opacity="1" data-original="#1a164c" class=""></path></g></svg>