<svg xmlns="http://www.w3.org/2000/svg" xmlns:xlink="http://www.w3.org/1999/xlink" width="512" height="512" x="0" y="0" viewBox="0 0 512 512" style="enable-background:new 0 0 512 512" xml:space="preserve" class=""><g><path fill="#dfeaef" d="M483.73 169.79v304.13H28.27V169.79c0-15.62 12.67-28.29 28.3-28.29h398.86c15.63 0 28.3 12.67 28.3 28.29z" opacity="1" data-original="#dfeaef"></path><path fill="#b4d0d5" d="M28.27 428.75h455.46v45.17H28.27z" opacity="1" data-original="#b4d0d5"></path><path fill="#f4dd45" d="M448.728 176.498v235.238H63.271V176.498z" opacity="1" data-original="#f4dd45" class=""></path><path fill="#80b4fb" d="M303.778 278.481h-94.74c-36.68 0-66.414 29.735-66.414 66.414v47.56c0 10.648 8.632 19.279 19.279 19.279h189.01c10.648 0 19.279-8.632 19.279-19.279v-47.56c0-36.679-29.734-66.414-66.414-66.414z" opacity="1" data-original="#80b4fb"></path><path fill="#5490f9" d="M163.291 344.895v47.565c0 10.647 8.638 19.276 19.285 19.276h-20.667c-10.655 0-19.284-8.63-19.284-19.276v-47.565c0-36.682 29.736-66.41 66.418-66.41h20.667c-36.683 0-66.419 29.728-66.419 66.41z" opacity="1" data-original="#5490f9"></path><path fill="#f1b986" d="M290.829 286.737c.014.177.014.354.014.531 0 14.671-15.414 26.566-34.432 26.566s-34.439-11.895-34.439-26.566c0-.177 0-.354.014-.531" opacity="1" data-original="#f1b986"></path><path fill="#f1d0a5" d="M187.88 356.117v18.784h35.056c18.254 0 33.052 14.798 33.052 33.052v3.782h-94.084c-10.648 0-19.279-8.632-19.279-19.279v-36.338h45.255z" opacity="1" data-original="#f1d0a5" class=""></path><path fill="#f1b986" d="M161.845 411.735h20.667c-10.618-.034-19.222-8.649-19.222-19.275v-36.343h-20.667v36.343c.001 10.626 8.597 19.241 19.222 19.275z" opacity="1" data-original="#f1b986"></path><path fill="#f1d0a5" d="M324.936 356.117v18.784H289.88c-18.254 0-33.052 14.798-33.052 33.052v3.782h94.084c10.648 0 19.279-8.632 19.279-19.279v-36.338h-45.255z" opacity="1" data-original="#f1d0a5" class=""></path><path fill="#f1b986" d="M324.936 355.877h19.024v19.024h-19.024z" opacity="1" data-original="#f1b986"></path><path fill="#5490f9" d="M324.936 343.832h19.024v12.045h-19.024z" opacity="1" data-original="#5490f9"></path><path fill="#f1b986" d="M289.883 374.898h15.307c-18.26 0-33.054 14.803-33.054 33.055v3.782h-15.307v-3.782c0-18.252 14.795-33.055 33.054-33.055z" opacity="1" data-original="#f1b986"></path><path fill="#665e66" d="M413.652 167.277C413.652 79.035 343.07 7.5 256.002 7.5S98.351 79.035 98.351 167.277s70.582 94.9 157.65 94.9 157.651-6.658 157.651-94.9z" opacity="1" data-original="#665e66" class=""></path><path fill="#454045" d="M253.931 262.171c-86.11-.106-155.58-7.348-155.58-94.894 0-88.239 70.587-159.774 157.652-159.774-44.314 0-80.233 71.535-80.233 159.774 0 86.867 34.809 94.675 78.161 94.894z" opacity="1" data-original="#454045"></path><path fill="#f1d0a5" d="M369.212 225.724c-1.676 32.595-27.758 58.543-60.361 60.078a1113.899 1113.899 0 0 1-83.89.799h-.049a1128.13 1128.13 0 0 1-21.273-.799c-32.595-1.535-58.685-27.482-60.353-60.078a759.218 759.218 0 0 1-.297-71.789v-.007a741.22 741.22 0 0 1 1.28-22.362c5.17-24.554 25.403-45.545 53.67-57.85.835-.361 1.676-.721 2.525-1.068 11.436-4.689 24.123-7.977 37.61-9.547a153.09 153.09 0 0 1 18.176-1.061c13.741 0 26.909 1.768 39.095 5.014v.007c38.147 10.141 66.655 34.724 72.885 64.59 0 .007 0 .014.007.021a764.533 764.533 0 0 1 .975 94.052z" opacity="1" data-original="#f1d0a5" class=""></path><path fill="#f1b986" d="M224.962 286.601h-.049a1128.13 1128.13 0 0 1-21.273-.799c-32.595-1.535-58.685-27.482-60.354-60.078a763.509 763.509 0 0 1 .983-94.158c5.17-24.554 25.403-45.544 53.67-57.85.835-.361 1.676-.721 2.525-1.068-1.938 47.256-2.397 115.714-1.407 154.413.763 29.745 11.633 54.003 25.905 59.54z" opacity="1" data-original="#f1b986"></path><path fill="#665e66" d="M295.344 67.054v.007c-18.783 32.214-63.819 74.562-81.74 64.448-6.556-3.706-5.7-11.337-2.001-19.547-.53.926-12.1 20.99-27.977 34.363-12.051 10.156-26.577 16.464-40.636 7.61v-.007a741.22 741.22 0 0 1 1.28-22.362c5.17-24.554 25.403-45.545 53.67-57.85.835-.361 1.676-.721 2.525-1.068 11.436-4.689 24.123-7.977 37.61-9.547a153.09 153.09 0 0 1 18.176-1.061c13.739 0 26.907 1.768 39.093 5.014z" opacity="1" data-original="#665e66" class=""></path><path fill="#454045" d="M183.625 146.325c-12.051 10.156-26.577 16.464-40.636 7.61v-.007a741.22 741.22 0 0 1 1.28-22.362c5.17-24.554 25.403-45.545 53.67-57.85.835-.361 1.676-.721 2.525-1.068 11.436-4.689 24.123-7.977 37.61-9.547a153.09 153.09 0 0 1 18.176-1.061c-39.365 13.734-120.637 84.285-72.625 84.285z" opacity="1" data-original="#454045"></path><ellipse cx="185.694" cy="209.108" fill="#df9380" rx="19.285" ry="12.229" opacity="1" data-original="#df9380"></ellipse><ellipse cx="326.801" cy="209.108" fill="#f9a58e" rx="19.285" ry="12.229" opacity="1" data-original="#f9a58e"></ellipse><path fill="#80b4fb" d="M369.509 121.149c0 3.883-.368 7.716-1.089 11.457-7.652-39.873-54.95-70.566-112.171-70.566-6.195 0-12.27.354-18.176 1.061-12.631 1.464-24.554 4.441-35.403 8.67a116.052 116.052 0 0 0-4.731 1.945c-28.649 12.475-49.059 33.868-53.875 58.854a60.66 60.66 0 0 1-1.075-11.421c0-29.83 22.023-55.941 54.95-70.269a129.605 129.605 0 0 1 10.566-4.059c9.243-3.126 19.165-5.361 29.568-6.57 5.905-.707 11.98-1.054 18.176-1.054 62.553 0 113.26 36.69 113.26 81.952z" opacity="1" data-original="#80b4fb"></path><path fill="#5490f9" d="m208.505 46.82-5.835 24.951a116.052 116.052 0 0 0-4.731 1.945c-28.649 12.475-49.059 33.868-53.875 58.854a60.66 60.66 0 0 1-1.075-11.421c0-29.83 22.023-55.941 54.95-70.269a129.978 129.978 0 0 1 10.566-4.06z" opacity="1" data-original="#5490f9"></path><path fill="#dfeaef" d="M504.5 446.736H7.5v16.622c0 22.722 18.42 41.141 41.141 41.141h414.717c22.722 0 41.141-18.42 41.141-41.141v-16.622z" opacity="1" data-original="#dfeaef"></path><path fill="#b4d0d5" d="M93.601 504.5h-44.96c-22.73 0-41.15-18.42-41.15-41.14v-16.62h44.96v16.62c0 22.72 18.42 41.14 41.15 41.14zM282.953 475.618h-53.905c-15.483 0-28.035-12.552-28.035-28.035v-.847h109.975v.847c-.001 15.483-12.552 28.035-28.035 28.035z" opacity="1" data-original="#b4d0d5"></path><path fill="#da4a54" d="M188.957 146.073c-.991 9.037-8.311 16.098-17.382 16.733-.75.053-1.496.106-2.241.154-5.531.375-9.831 4.968-9.831 10.514v20.961c0 7.051-8.071 11.053-13.679 6.782-10.235-7.797-23.851-19.393-32.206-31.417-1.977-2.847-5.243-4.507-8.71-4.488-25.722.13-51.445-.697-77.167-2.506a18.803 18.803 0 0 1-15.973-11.346 18.534 18.534 0 0 1-1.409-5.344 478.387 478.387 0 0 1 0-104.405c.991-9.028 8.316-16.055 17.373-16.69a1025.39 1025.39 0 0 1 114.948-1.616c9.629.399 19.263.938 28.892 1.616 9.062.635 16.392 7.662 17.382 16.69a478.43 478.43 0 0 1 .003 104.362z" opacity="1" data-original="#da4a54"></path><path d="M282.626 207.005a7.499 7.499 0 0 0-9.991 3.561c-2.988 6.296-9.421 10.364-16.388 10.364s-13.398-4.068-16.388-10.365a7.5 7.5 0 0 0-13.551 6.433c5.459 11.501 17.211 18.933 29.938 18.933 12.729 0 24.48-7.432 29.938-18.934a7.498 7.498 0 0 0-3.558-9.992zM328.632 179.851a55.358 55.358 0 0 0-10.411-1.01 21.543 21.543 0 0 0 1.058-6.73c0-8.467-4.629-15.355-10.319-15.355s-10.32 6.888-10.32 15.355c0 3.659.868 7.02 2.309 9.66-2.927 1.064-4.62 2.035-4.809 2.145a7.501 7.501 0 0 0 3.8 13.971 7.462 7.462 0 0 0 3.786-1.031c.084-.049 8.752-4.842 22.068-2.276a7.494 7.494 0 0 0 8.783-5.946 7.5 7.5 0 0 0-5.945-8.783zM216.355 183.917c-.188-.11-1.882-1.081-4.809-2.144 1.441-2.641 2.309-6.002 2.309-9.661 0-8.467-4.629-15.355-10.319-15.355s-10.32 6.888-10.32 15.355c0 2.416.387 4.695 1.059 6.73a55.35 55.35 0 0 0-10.411 1.01 7.5 7.5 0 0 0-5.945 8.783 7.494 7.494 0 0 0 8.783 5.946c13.123-2.53 21.656 2.05 22.127 2.31a7.5 7.5 0 0 0 7.526-12.974z" fill="#000000" opacity="1" data-original="#000000" class=""></path><path d="M504.5 439.236h-13.27V169.79c0-19.735-16.061-35.79-35.801-35.79h-37.541a166.964 166.964 0 0 0-12.304-37.694 7.5 7.5 0 0 0-9.959-3.65 7.5 7.5 0 0 0-3.65 9.959 151.904 151.904 0 0 1 12.157 39.537c.028.325.076.645.144.957a155.986 155.986 0 0 1 1.874 24.162c0 38.737-14.789 57.484-30.468 67.674a72.003 72.003 0 0 0 1.017-8.839c1.575-30.669 1.287-61.811-.828-92.606a68.303 68.303 0 0 0 1.138-12.349c0-24.361-12.882-47.098-36.273-64.024C318.076 40.73 288.072 31.7 256.25 31.7c-6.474 0-12.887.371-19.049 1.101-14.351 1.675-27.974 5.218-40.547 10.498-.084-.802-.159-1.604-.247-2.406a26.173 26.173 0 0 0-4.15-11.514A148.743 148.743 0 0 1 256 15c47.977 0 93.452 23.552 121.648 63.001a7.488 7.488 0 0 0 6.107 3.139 7.5 7.5 0 0 0 6.095-11.862C358.846 25.899 308.808 0 256 0a163.675 163.675 0 0 0-76.664 19.101 26.317 26.317 0 0 0-7.239-1.561 1016.575 1016.575 0 0 0-29.104-1.628A1037.996 1037.996 0 0 0 27.205 17.54C14.51 18.43 4.289 28.251 2.902 40.895a487.948 487.948 0 0 0 0 106.038 25.886 25.886 0 0 0 1.969 7.477 26.15 26.15 0 0 0 15.922 14.609c-.006.258-.024.514-.024.772v211.95c0 4.142 3.357 7.5 7.5 7.5s7.5-3.358 7.5-7.5V170.848c7.158.442 14.344.811 21.545 1.105a7.459 7.459 0 0 0-1.545 4.547v235.24a7.5 7.5 0 0 0 7.5 7.5H448.73a7.5 7.5 0 0 0 7.5-7.5V176.5a7.5 7.5 0 0 0-7.5-7.5h-27.602c.006-.578.022-1.147.022-1.73 0-6.151-.324-12.244-.966-18.27h35.245c11.47 0 20.801 9.326 20.801 20.79v269.446H35.77V411.74c0-4.142-3.357-7.5-7.5-7.5s-7.5 3.358-7.5 7.5v27.496H7.5a7.5 7.5 0 0 0-7.5 7.5v16.622C0 490.18 21.82 512 48.642 512h414.717C490.18 512 512 490.18 512 463.358v-16.622a7.5 7.5 0 0 0-7.5-7.5zM360.807 132.92c2.176 30.721 2.485 61.811.913 92.417-1.478 28.844-24.357 51.617-53.225 52.972a1109.13 1109.13 0 0 1-104.504 0c-28.866-1.354-51.742-24.126-53.211-52.976a743.394 743.394 0 0 1-.616-14.89c.266.014.532.032.799.032 2.42 0 4.855-.555 7.129-1.681 5.495-2.723 8.909-8.225 8.909-14.359v-20.96c0-1.592 1.247-2.923 2.816-3.03.714-.046 1.43-.097 2.147-.147l.133-.009c12.698-.889 22.924-10.729 24.313-23.397v-.002c.096-.876.178-1.753.269-2.63a142.313 142.313 0 0 0 8.636-9.944c1.264 1.454 2.805 2.708 4.604 3.725 14.204 8.026 34.52-4.894 49.062-17.145 14.932-12.581 29.739-29.418 39.749-45.025 32.339 10.067 56.564 31.265 62.077 57.049zM187.88 382.401h35.056c12.827 0 23.477 9.5 25.282 21.833h-86.314c-6.485 0-11.761-5.268-11.778-11.749l.001-.028v-28.841h30.253V374.9a7.5 7.5 0 0 0 7.5 7.501zm137.057 0a7.5 7.5 0 0 0 7.5-7.5v-11.284h30.256v28.838c0 6.495-5.284 11.779-11.779 11.779H264.6c1.806-12.333 12.455-21.833 25.282-21.833zm37.756-33.784h-30.257v-4.785c0-4.142-3.357-7.5-7.5-7.5s-7.5 3.358-7.5 7.5V367.401H289.88c-13.886 0-26.161 7.019-33.473 17.692-7.312-10.673-19.586-17.692-33.473-17.692H195.38V343.832c0-4.142-3.357-7.5-7.5-7.5s-7.5 3.358-7.5 7.5v4.785h-30.253v-3.724c0-23.768 14.503-45.356 36.315-54.421a71.739 71.739 0 0 0 16.843 2.819c3.983.188 7.973.349 11.967.495 3.756 15.676 20.779 27.547 41.16 27.547 20.383 0 37.407-11.879 41.156-27.561 3.883-.143 7.762-.298 11.633-.481a71.708 71.708 0 0 0 17.025-2.876c21.896 9.029 36.467 30.657 36.467 54.478zm-131.263-54.36c8.263.182 16.538.282 24.815.282 8.386 0 16.772-.101 25.146-.288-4.03 6.998-13.841 12.082-24.979 12.082-11.137 0-20.949-5.08-24.982-12.076zm-96.485-92.062c.169 8.08.451 16.109.855 23.906a72.216 72.216 0 0 0 1.054 9.073c-19.794-12.758-29.757-32.944-30.886-62.18.6.202 1.129.565 1.49 1.084 7.254 10.442 18.067 20.446 27.487 28.117zm64.186-120.79c.599-.274 1.195-.553 1.799-.817 11.727-5.097 24.514-8.474 38.035-10.042 5.558-.668 11.373-1.007 17.285-1.007 9.299 0 18.352.88 27.009 2.504-9.071 13.087-21.648 27.021-33.942 37.379-16.424 13.837-28.11 17.765-32.016 15.559-.707-.4-1-.682-1.051-1.879-.047-1.081.17-3.538 2.115-7.903a7.53 7.53 0 0 0 .754-3.27 7.49 7.49 0 0 0-5.297-7.151 7.521 7.521 0 0 0-8.747 3.48c-.077.135-2.431 4.239-6.391 9.863.608-12.226.76-24.478.447-36.716zm1.807-23.65c11.685-5.093 24.471-8.477 38.015-10.057a147.732 147.732 0 0 1 17.298-.998c41.976 0 78.317 17.303 95.389 42.309-4.931-4.696-10.517-9.046-16.698-12.971-21.833-13.863-49.779-21.497-78.69-21.497-6.508 0-12.925.375-19.043 1.11-13.635 1.581-26.643 4.865-38.754 9.74-.124-2.109-.26-4.217-.41-6.323.948-.446 1.911-.885 2.893-1.313zM17.813 145.3a473.08 473.08 0 0 1 0-102.771 11.286 11.286 0 0 1 10.442-10.026 1022.38 1022.38 0 0 1 142.79 0c5.461.383 9.856 4.599 10.452 10.024a473.145 473.145 0 0 1 .004 102.73h.001c-.6 5.451-4.995 9.685-10.454 10.067l-.134.009c-.691.049-1.38.097-2.088.143-9.435.64-16.824 8.545-16.824 17.997v20.96c0 .174 0 .636-.568.918-.563.279-.93.002-1.065-.102-9.628-7.334-22.751-18.445-30.59-29.728-3.355-4.834-8.886-7.71-14.807-7.71h-.104a1022.93 1022.93 0 0 1-76.606-2.488c-4.25-.296-7.929-2.908-9.614-6.848a10.97 10.97 0 0 1-.835-3.175zM70.77 184h20.982c3.97 35.208 21.148 58.767 52.16 71.701a70.57 70.57 0 0 0 25.183 27.023c-20.786 13.419-33.967 36.8-33.967 62.17l-.003 47.562c0 4.227.988 8.226 2.74 11.785H70.77zm370.46 0v220.24h-66.278a26.618 26.618 0 0 0 2.738-11.74l.002-.042v-47.565c0-25.436-13.25-48.872-34.134-62.274a70.6 70.6 0 0 0 25.167-27.189c30.612-12.983 47.58-36.454 51.521-71.431h20.984zM302.379 454.24c-2.771 8.065-10.434 13.878-19.427 13.878h-53.904c-8.994 0-16.656-5.813-19.427-13.878zM497 463.358c0 18.55-15.092 33.642-33.642 33.642H48.642C30.092 497 15 481.908 15 463.358v-9.122h13.192c.026 0 .051.004.077.004h165.878c3.126 16.422 17.583 28.878 34.901 28.878h53.904c17.318 0 31.774-12.456 34.901-28.878H483.73c.026 0 .051-.004.077-.004H497z" fill="#000000" opacity="1" data-original="#000000" class=""></path><path d="M47.279 85.53H152.03c4.143 0 7.5-3.358 7.5-7.5s-3.357-7.5-7.5-7.5H47.279a7.5 7.5 0 0 0 0 15zM47.279 118.488H152.03c4.143 0 7.5-3.358 7.5-7.5s-3.357-7.5-7.5-7.5H47.279a7.5 7.5 0 0 0 0 15z" fill="#000000" opacity="1" data-original="#000000" class=""></path></g></svg>